<svg width="10" height="10" viewBox="0 0 10 10" fill="none" xmlns="http://www.w3.org/2000/svg">
  <path d="M0.419434 4.83084C0.419434 6.77449 1.63768 8.43397 3.35217 9.08691C3.31044 8.73141 3.26605 8.14525 3.36165 7.73398C3.44398 7.38038 3.89319 5.48112 3.89319 5.48112C3.89319 5.48112 3.75774 5.20985 3.75774 4.80807C3.75774 4.17827 4.12272 3.70782 4.57762 3.70782C4.96461 3.70782 5.15127 3.99806 5.15127 4.34597C5.15127 4.73485 4.90352 5.31608 4.77567 5.85521C4.66906 6.30631 5.00217 6.67432 5.44682 6.67432C6.25228 6.67432 6.87183 5.82485 6.87183 4.59865C6.87183 3.51319 6.09179 2.75478 4.97826 2.75478C3.68907 2.75478 2.93218 3.72186 2.93218 4.72157C2.93218 5.11121 3.08204 5.52855 3.26946 5.75581C3.28544 5.77297 3.29673 5.79396 3.30225 5.81675C3.30776 5.83954 3.30731 5.86337 3.30095 5.88594C3.26643 6.02935 3.18979 6.33704 3.17499 6.40002C3.15488 6.48273 3.10936 6.50056 3.02323 6.46034C2.45717 6.19704 2.10358 5.36958 2.10358 4.70488C2.10358 3.27493 3.14198 1.96222 5.09777 1.96222C6.66999 1.96222 7.89203 3.08258 7.89203 4.57968C7.89203 6.14165 6.9075 7.39897 5.54015 7.39897C5.0807 7.39897 4.64933 7.15995 4.50136 6.87806C4.50136 6.87806 4.2741 7.74384 4.21909 7.95555C4.1121 8.36681 3.81541 8.88735 3.63141 9.18289C4.05557 9.31341 4.50554 9.3836 4.97219 9.3836C7.48645 9.3836 9.52495 7.3451 9.52495 4.83084C9.52495 2.31657 7.48645 0.278076 4.97219 0.278076C2.45793 0.278076 0.419434 2.31657 0.419434 4.83084Z" fill="#787878"/>
</svg>
