<svg width="11" height="12" viewBox="0 0 11 12" fill="none" xmlns="http://www.w3.org/2000/svg">
  <path d="M4.98154 0.828879C4.12771 0.839186 2.29203 0.979497 1.2653 1.92144C0.50157 2.67819 0.234913 3.79702 0.203659 5.18051C0.177724 6.55902 0.14647 9.14778 2.64181 9.85266V10.9263C2.64181 10.9263 2.62618 11.3559 2.91013 11.444C3.25991 11.5547 3.45907 11.2242 3.79156 10.8691L4.41165 10.1679C6.11899 10.3098 7.42667 9.98267 7.57729 9.93412C7.92375 9.8234 9.87513 9.57404 10.194 6.98494C10.5212 4.31105 10.0347 2.62632 9.15662 1.86425H9.1513C8.88631 1.62021 7.82134 0.844174 5.44204 0.835529C5.44204 0.835529 5.26549 0.823892 4.98154 0.828879ZM5.0108 1.58064C5.25319 1.57898 5.40048 1.58928 5.40048 1.58928C7.41437 1.5946 8.3756 2.20073 8.60236 2.40488C9.34182 3.03861 9.72285 4.55742 9.44389 6.78976C9.1789 8.95427 7.59624 9.09126 7.30332 9.18469C7.17864 9.22459 6.02689 9.50854 4.5759 9.41511C4.5759 9.41511 3.49531 10.7191 3.1575 11.0549C3.10397 11.1138 3.04146 11.1311 3.00156 11.1224C2.94438 11.1085 2.92709 11.0377 2.93041 10.9406L2.94072 9.15876C0.824418 8.57357 0.949102 6.36551 0.971711 5.2121C0.997645 4.05869 1.2141 3.11508 1.85846 2.47604C2.72593 1.69169 4.28464 1.58596 5.01014 1.58064H5.0108ZM5.1704 2.73372C5.15298 2.73354 5.1357 2.73681 5.11955 2.74335C5.1034 2.74988 5.08871 2.75955 5.07632 2.77179C5.06392 2.78403 5.05407 2.7986 5.04734 2.81466C5.0406 2.83072 5.03711 2.84796 5.03707 2.86538C5.03707 2.93986 5.09758 2.99871 5.1704 2.99871C5.50006 2.99244 5.82771 3.0515 6.13444 3.17248C6.44116 3.29346 6.72091 3.47396 6.95753 3.70359C7.44064 4.17273 7.67604 4.80313 7.68502 5.62738C7.68502 5.70019 7.74387 5.76071 7.81835 5.76071V5.75539C7.85345 5.75548 7.88716 5.74169 7.91214 5.71702C7.93711 5.69236 7.95133 5.65882 7.95168 5.62372C7.96782 5.23575 7.90491 4.84856 7.76676 4.48566C7.6286 4.12277 7.4181 3.79175 7.14805 3.51274C6.62172 2.99838 5.95474 2.73338 5.1704 2.73338V2.73372ZM3.41784 3.03861C3.32373 3.02486 3.22775 3.04375 3.14586 3.09214H3.13888C2.94878 3.20357 2.77754 3.34441 2.6315 3.50942C2.51014 3.64973 2.44431 3.7917 2.42702 3.92835C2.41671 4.00981 2.4237 4.09127 2.44797 4.16908L2.45661 4.1744C2.59327 4.57604 2.77181 4.9624 2.98993 5.32614C3.27089 5.83716 3.61665 6.30977 4.01865 6.73224L4.03062 6.74953L4.04957 6.7635L4.06154 6.77746L4.07551 6.78943C4.49951 7.19261 4.97326 7.53999 5.48526 7.82314C6.07045 8.14167 6.42555 8.29229 6.63867 8.35479V8.35812C6.70118 8.37707 6.75804 8.38572 6.81523 8.38572C6.99686 8.37241 7.16881 8.29867 7.30365 8.17625C7.46791 8.03018 7.60718 7.85823 7.71594 7.6672V7.66388C7.81802 7.4717 7.78344 7.28983 7.63614 7.16681C7.34116 6.90896 7.02218 6.67994 6.68356 6.48287C6.4568 6.35985 6.22639 6.43433 6.13296 6.55902L5.93379 6.81004C5.83172 6.93473 5.64619 6.91744 5.64619 6.91744L5.64087 6.92076C4.25738 6.56733 3.88831 5.16655 3.88831 5.16655C3.88831 5.16655 3.87103 4.97603 3.99903 4.87894L4.2484 4.67812C4.36777 4.58103 4.45089 4.35095 4.32288 4.12386C4.12718 3.78477 3.89866 3.46571 3.64061 3.17127C3.5842 3.10186 3.50505 3.05463 3.41718 3.03794L3.41784 3.03861ZM5.40048 3.43361C5.22393 3.43361 5.22393 3.70026 5.40214 3.70026C5.62168 3.70383 5.83836 3.75062 6.03981 3.83796C6.24125 3.9253 6.42351 4.05149 6.57616 4.20931C6.71542 4.36292 6.82243 4.54292 6.89085 4.73864C6.95927 4.93437 6.98771 5.14183 6.97449 5.34875C6.9751 5.38377 6.98939 5.41716 7.01431 5.44177C7.03923 5.46637 7.07279 5.48025 7.10782 5.48042L7.11314 5.4874C7.14842 5.48714 7.18218 5.47301 7.20713 5.44806C7.23207 5.42311 7.2462 5.38935 7.24647 5.35407C7.25843 4.82574 7.09418 4.38253 6.772 4.02743C6.44816 3.67234 5.9963 3.47317 5.41943 3.43361H5.40048ZM5.61893 4.15046C5.43705 4.14514 5.43007 4.41711 5.61028 4.42243C6.0485 4.44504 6.2613 4.66648 6.28923 5.12199C6.28983 5.15657 6.30395 5.18953 6.32856 5.21383C6.35317 5.23813 6.38631 5.25183 6.42089 5.252H6.42621C6.44399 5.25123 6.46144 5.24694 6.47754 5.23936C6.49364 5.23178 6.50807 5.22107 6.51999 5.20785C6.5319 5.19464 6.54107 5.17918 6.54695 5.16238C6.55282 5.14559 6.5553 5.12779 6.55422 5.11002C6.52297 4.5162 6.19912 4.18171 5.62425 4.15079H5.61893V4.15046Z" fill="#787878"/>
</svg>
