<svg width="11" height="7" viewBox="0 0 11 7" fill="none" xmlns="http://www.w3.org/2000/svg">
  <path fill-rule="evenodd" clip-rule="evenodd" d="M10.6303 0.786651C10.7002 0.556592 10.6303 0.387207 10.2953 0.387207H9.18925C8.90779 0.387207 8.77801 0.533417 8.70764 0.694796C8.70764 0.694796 8.14513 2.04145 7.34835 2.91618C7.09048 3.16983 6.97335 3.25031 6.83261 3.25031C6.76225 3.25031 6.65649 3.16984 6.65649 2.93935V0.786651C6.65649 0.510243 6.57896 0.387207 6.34468 0.387207H4.60533C4.42963 0.387207 4.32387 0.515299 4.32387 0.63707C4.32387 0.898732 4.72247 0.959407 4.76334 1.69594V3.29624C4.76334 3.64723 4.69887 3.71085 4.55814 3.71085C4.18313 3.71085 3.2709 2.35788 2.72946 0.809826C2.62454 0.508557 2.51836 0.387207 2.23563 0.387207H1.12873C0.812715 0.387207 0.749512 0.533417 0.749512 0.694796C0.749512 0.98216 1.12452 2.40971 2.49603 4.2978C3.41037 5.58715 4.69761 6.28618 5.87024 6.28618C6.57348 6.28618 6.66028 6.13112 6.66028 5.86356V4.88896C6.66028 4.57842 6.72685 4.51649 6.94975 4.51649C7.11408 4.51649 7.39512 4.59738 8.05159 5.21888C8.8016 5.95583 8.92506 6.28618 9.34726 6.28618H10.4533C10.7693 6.28618 10.9278 6.13112 10.8367 5.82437C10.7365 5.51931 10.3783 5.07647 9.90345 4.55104C9.64558 4.25187 9.25877 3.92954 9.14122 3.76816C8.97731 3.56127 9.02408 3.469 9.14122 3.28486C9.14122 3.28486 10.4896 1.41995 10.6299 0.786651H10.6303Z" fill="#787878"/>
</svg>
