<svg width="10" height="10" viewBox="0 0 10 10" fill="none" xmlns="http://www.w3.org/2000/svg">
  <path fill-rule="evenodd" clip-rule="evenodd" d="M7.44313 5.73457C7.33007 5.67804 6.77577 5.40564 6.67258 5.3677C6.56938 5.33014 6.49426 5.31155 6.41876 5.42461C6.34364 5.53691 6.12776 5.7911 6.06213 5.86622C5.99611 5.94172 5.93048 5.95083 5.81779 5.89468C5.70511 5.83777 5.34165 5.71902 4.91104 5.33507C4.57603 5.03611 4.34953 4.66695 4.28389 4.55389C4.21826 4.44121 4.27669 4.38013 4.33322 4.32398C4.38406 4.27352 4.4459 4.19233 4.50243 4.12669C4.55896 4.06068 4.57755 4.01363 4.61511 3.93813C4.65305 3.86301 4.63408 3.79737 4.60562 3.74084C4.57755 3.68431 4.35219 3.12926 4.2581 2.90352C4.16666 2.68385 4.07371 2.71382 4.00466 2.71002C3.93864 2.70699 3.86352 2.70623 3.7884 2.70623C3.71328 2.70623 3.59112 2.73431 3.48792 2.84737C3.38434 2.96005 3.09335 3.23283 3.09335 3.78789C3.09335 4.34257 3.49703 4.87866 3.55356 4.95416C3.61009 5.02928 4.34839 6.16822 5.47937 6.65651C5.74874 6.7726 5.95855 6.84203 6.12207 6.89363C6.3922 6.97975 6.63805 6.96761 6.8323 6.9384C7.04856 6.90615 7.49928 6.66561 7.59337 6.40231C7.68708 6.13901 7.68708 5.91327 7.65901 5.86622C7.63093 5.81918 7.55581 5.7911 7.44275 5.73457H7.44313ZM5.38604 8.54325H5.38452C4.71278 8.54337 4.05336 8.36279 3.4754 8.02044L3.33882 7.93925L1.91911 8.31182L2.29813 6.92778L2.20897 6.78588C1.83342 6.18809 1.63468 5.49623 1.63571 4.79026C1.63646 2.72254 3.31871 1.0403 5.38756 1.0403C6.38917 1.0403 7.33083 1.43108 8.03878 2.13979C8.38797 2.48754 8.66474 2.90108 8.85307 3.35648C9.04141 3.81188 9.13757 4.30011 9.136 4.79291C9.13524 6.86062 7.45299 8.54325 5.38604 8.54325ZM8.57753 1.60143C8.1595 1.18065 7.66213 0.847011 7.11423 0.619852C6.56632 0.392694 5.97879 0.27653 5.38566 0.278092C2.8991 0.278092 0.874636 2.30217 0.873877 4.78988C0.873498 5.58509 1.08103 6.36134 1.47598 7.04539L0.835938 9.38361L3.22765 8.75609C3.88927 9.11656 4.6307 9.30544 5.38414 9.30546H5.38604C7.87261 9.30546 9.89707 7.28137 9.89783 4.79329C9.89966 4.2004 9.78392 3.61303 9.55729 3.06515C9.33067 2.51728 8.99766 2.01978 8.57753 1.60143Z" fill="#787878"/>
</svg>
