<svg width="69" height="69" viewBox="0 0 69 69" fill="none" xmlns="http://www.w3.org/2000/svg">
  <rect x="0.364868" y="0.493164" width="68.4951" height="68.4951" rx="10" fill="#8FB600"/>
  <path fill-rule="evenodd" clip-rule="evenodd" d="M42.9929 38.3888C42.5365 38.1606 40.2992 37.0611 39.8826 36.9079C39.4661 36.7563 39.1629 36.6813 38.8581 37.1376C38.5549 37.5909 37.6836 38.6169 37.4186 38.9202C37.1522 39.2249 36.8872 39.2617 36.4324 39.035C35.9776 38.8053 34.5105 38.326 32.7724 36.7762C31.4202 35.5695 30.5059 34.0794 30.241 33.6231C29.9761 33.1683 30.2119 32.9217 30.4401 32.6951C30.6453 32.4914 30.8949 32.1637 31.1231 31.8987C31.3513 31.6323 31.4263 31.4424 31.5779 31.1376C31.731 30.8344 31.6545 30.5695 31.5396 30.3413C31.4263 30.1131 30.5167 27.8727 30.1369 26.9615C29.7678 26.0749 29.3926 26.1958 29.1139 26.1805C28.8474 26.1683 28.5442 26.1652 28.241 26.1652C27.9378 26.1652 27.4447 26.2785 27.0281 26.7349C26.6101 27.1897 25.4355 28.2908 25.4355 30.5312C25.4355 32.7701 27.0649 34.934 27.2931 35.2387C27.5213 35.5419 30.5013 40.1392 35.0664 42.1101C36.1537 42.5787 37.0006 42.8589 37.6606 43.0672C38.7509 43.4148 39.7433 43.3658 40.5273 43.2479C41.4002 43.1177 43.2195 42.1468 43.5993 41.084C43.9776 40.0212 43.9776 39.1101 43.8642 38.9202C43.7509 38.7303 43.4477 38.6169 42.9914 38.3888H42.9929ZM34.6897 49.7257H34.6836C31.9721 49.7261 29.3105 48.9973 26.9776 47.6154L26.4263 47.2877L20.6958 48.7915L22.2257 43.205L21.8658 42.6323C20.35 40.2193 19.5478 37.4267 19.5519 34.5771C19.555 26.2311 26.3451 19.4409 34.6958 19.4409C38.7387 19.4409 42.5396 21.0182 45.3972 23.8789C46.8066 25.2825 47.9238 26.9517 48.6839 28.7899C49.4441 30.628 49.8323 32.5987 49.8259 34.5879C49.8229 42.9339 43.0327 49.7257 34.6897 49.7257ZM47.5717 21.7058C45.8844 20.0074 43.8769 18.6607 41.6653 17.7438C39.4538 16.8269 37.0822 16.358 34.6882 16.3643C24.6514 16.3643 16.4799 24.5343 16.4769 34.5756C16.4753 37.7854 17.313 40.9186 18.9072 43.6797L16.3237 53.1177L25.9776 50.5848C28.6482 52.0398 31.6408 52.8022 34.682 52.8022H34.6897C44.7264 52.8022 52.8979 44.6322 52.901 34.5894C52.9084 32.1963 52.4412 29.8254 51.5264 27.614C50.6117 25.4025 49.2675 23.3944 47.5717 21.7058Z" fill="white"/>
</svg>
