<svg width="16" height="14" viewBox="0 0 16 14" fill="none" xmlns="http://www.w3.org/2000/svg">
  <path d="M14.9997 11.9277C14.7344 11.9277 14.48 11.8222 14.2924 11.6343C14.1048 11.4465 13.9994 11.1916 13.9994 10.926V6.91887C13.9994 6.65319 13.894 6.39838 13.7064 6.21051C13.5188 6.02264 13.2644 5.9171 12.9991 5.9171H3.40598L4.7064 7.20939C4.89476 7.39803 5.00058 7.65387 5.00058 7.92065C5.00058 8.18742 4.89476 8.44327 4.7064 8.6319C4.51803 8.82054 4.26256 8.92652 3.99617 8.92652C3.72978 8.92652 3.47431 8.82054 3.28594 8.6319L0.284983 5.62659C0.193913 5.53132 0.122525 5.41897 0.0749155 5.296C-0.0251346 5.05211 -0.0251346 4.77855 0.0749155 4.53466C0.122525 4.41169 0.193913 4.29934 0.284983 4.20407L3.28594 1.19876C3.37894 1.10486 3.48957 1.03033 3.61147 0.979474C3.73337 0.928616 3.86412 0.902431 3.99617 0.902431C4.12822 0.902431 4.25897 0.928616 4.38087 0.979474C4.50277 1.03033 4.61341 1.10486 4.7064 1.19876C4.80016 1.29188 4.87457 1.40268 4.92536 1.52475C4.97614 1.64683 5.00229 1.77777 5.00229 1.91001C5.00229 2.04226 4.97614 2.1732 4.92536 2.29527C4.87457 2.41735 4.80016 2.52814 4.7064 2.62127L3.40598 3.91356H12.9991C13.795 3.91356 14.5583 4.23019 15.1211 4.79379C15.6838 5.3574 16 6.12181 16 6.91887V10.926C16 11.1916 15.8946 11.4465 15.707 11.6343C15.5194 11.8222 15.265 11.9277 14.9997 11.9277Z" fill="#8FB600"/>
  <path d="M14.9915 8.97266V10.855C14.9915 11.6719 14.3294 12.334 13.5125 12.334H3.56287" stroke="#8FB600" stroke-width="2.01682" stroke-linecap="round" stroke-linejoin="round"/>
</svg>
