<svg width="28" height="33" viewBox="0 0 28 33" fill="none" xmlns="http://www.w3.org/2000/svg">
  <path d="M27.9882 9.58236C27.9882 9.58236 27.9882 9.58236 27.9882 9.45389L27.8918 9.213C27.8583 9.16189 27.8207 9.11355 27.7794 9.06847C27.7365 9.00049 27.6881 8.93604 27.6349 8.87576L27.4904 8.76335L27.2334 8.63488L15.1891 1.19955C14.9339 1.04003 14.639 0.955444 14.338 0.955444C14.037 0.955444 13.7421 1.04003 13.4869 1.19955L1.53896 8.63488L1.39443 8.76335L1.2499 8.87576C1.19667 8.93604 1.14834 9.00049 1.10537 9.06847C1.06409 9.11355 1.02649 9.16189 0.992958 9.213L0.896603 9.45389C0.896603 9.45389 0.896603 9.45389 0.896603 9.58236C0.88082 9.72109 0.88082 9.86116 0.896603 9.99989V24.0355C0.896057 24.3084 0.965073 24.577 1.09713 24.8158C1.2292 25.0546 1.41995 25.2559 1.65138 25.4005L13.6956 32.8358C13.7698 32.8816 13.8513 32.9142 13.9365 32.9322C13.9365 32.9322 14.0168 32.9322 14.065 32.9322C14.3367 33.0184 14.6284 33.0184 14.9001 32.9322C14.9001 32.9322 14.9804 32.9322 15.0285 32.9322C15.1138 32.9142 15.1953 32.8816 15.2694 32.8358L27.2334 25.4005C27.4648 25.2559 27.6556 25.0546 27.7877 24.8158C27.9197 24.577 27.9887 24.3084 27.9882 24.0355V9.99989C28.004 9.86116 28.004 9.72109 27.9882 9.58236ZM12.7803 28.5962L3.94782 23.1362V12.8905L12.7803 18.3345V28.5962ZM14.3862 15.5563L5.39313 9.99989L14.3862 4.45953L23.3792 9.99989L14.3862 15.5563ZM24.8246 23.1362L15.9921 28.5962V18.3345L24.8246 12.8905V23.1362Z" fill="#787878"/>
</svg>
