<svg width="27" height="30" viewBox="0 0 27 30" fill="none" xmlns="http://www.w3.org/2000/svg">
  <path d="M26.2891 18.9866C26.2859 18.1099 26.0197 17.2543 25.525 16.5304C25.0303 15.8066 24.3298 15.2478 23.5141 14.9264L26.2453 4.70284C26.3023 4.48511 26.3083 4.25714 26.2627 4.03672C26.2171 3.81631 26.1211 3.60942 25.9824 3.4322C25.8405 3.26615 25.6632 3.13403 25.4635 3.04556C25.2639 2.9571 25.0469 2.91454 24.8286 2.92102H4.81967L4.3377 1.08079C4.2539 0.76957 4.06952 0.49481 3.81327 0.299323C3.55702 0.103835 3.24331 -0.00140044 2.92101 1.40754e-05H0V2.92102H1.79642L5.41847 16.4453C5.50406 16.7639 5.695 17.0442 5.96021 17.2404C6.22541 17.4367 6.54925 17.5374 6.87898 17.5261H21.9076C22.2949 17.5261 22.6664 17.6799 22.9403 17.9538C23.2142 18.2277 23.3681 18.5992 23.3681 18.9866C23.3681 19.3739 23.2142 19.7454 22.9403 20.0193C22.6664 20.2932 22.2949 20.4471 21.9076 20.4471H2.92101C2.53366 20.4471 2.16217 20.601 1.88828 20.8749C1.61438 21.1487 1.4605 21.5202 1.4605 21.9076C1.4605 22.2949 1.61438 22.6664 1.88828 22.9403C2.16217 23.2142 2.53366 23.3681 2.92101 23.3681H4.6444C4.4042 24.0299 4.32702 24.7398 4.41939 25.4378C4.51175 26.1357 4.77095 26.8012 5.17503 27.3777C5.57911 27.9542 6.11618 28.4249 6.74074 28.7499C7.36531 29.0748 8.05899 29.2445 8.76303 29.2445C9.46707 29.2445 10.1607 29.0748 10.7853 28.7499C11.4099 28.4249 11.9469 27.9542 12.351 27.3777C12.7551 26.8012 13.0143 26.1357 13.1067 25.4378C13.199 24.7398 13.1219 24.0299 12.8817 23.3681H16.3284C16.1098 23.9707 16.026 24.614 16.0831 25.2525C16.1401 25.891 16.3366 26.5092 16.6586 27.0635C16.9806 27.6178 17.4203 28.0947 17.9467 28.4606C18.4732 28.8264 19.0734 29.0723 19.7052 29.1808C20.337 29.2894 20.985 29.258 21.6033 29.0888C22.2216 28.9197 22.7953 28.6169 23.2839 28.2019C23.7725 27.7868 24.164 27.2697 24.4309 26.6868C24.6978 26.104 24.8336 25.4696 24.8286 24.8286C24.8259 24.074 24.6244 23.3335 24.2444 22.6817C24.8689 22.2879 25.3838 21.7427 25.7413 21.0967C26.0988 20.4507 26.2872 19.7249 26.2891 18.9866ZM20.5785 14.6051H8.03278L5.60834 5.84203H22.9299L20.5785 14.6051ZM8.76303 26.2891C8.47417 26.2891 8.19179 26.2034 7.95162 26.043C7.71144 25.8825 7.52424 25.6544 7.4137 25.3875C7.30316 25.1206 7.27423 24.827 7.33059 24.5437C7.38694 24.2604 7.52604 24.0001 7.7303 23.7959C7.93455 23.5916 8.19479 23.4525 8.4781 23.3962C8.76141 23.3398 9.05507 23.3687 9.32194 23.4793C9.58881 23.5898 9.81691 23.777 9.97739 24.0172C10.1379 24.2574 10.2235 24.5397 10.2235 24.8286C10.2235 25.2159 10.0697 25.5874 9.79576 25.8613C9.52186 26.1352 9.15038 26.2891 8.76303 26.2891ZM20.4471 26.2891C20.1582 26.2891 19.8758 26.2034 19.6357 26.043C19.3955 25.8825 19.2083 25.6544 19.0977 25.3875C18.9872 25.1206 18.9583 24.827 19.0146 24.5437C19.071 24.2604 19.2101 24.0001 19.4143 23.7959C19.6186 23.5916 19.8788 23.4525 20.1621 23.3962C20.4454 23.3398 20.7391 23.3687 21.006 23.4793C21.2729 23.5898 21.501 23.777 21.6614 24.0172C21.8219 24.2574 21.9076 24.5397 21.9076 24.8286C21.9076 25.2159 21.7537 25.5874 21.4798 25.8613C21.2059 26.1352 20.8344 26.2891 20.4471 26.2891Z" fill="#8FB600"/>
</svg>
