<svg width="15" height="16" viewBox="0 0 15 16" fill="none" xmlns="http://www.w3.org/2000/svg">
  <path d="M7.5 0.0546875C6.01664 0.0546875 4.56659 0.494555 3.33323 1.31867C2.09986 2.14278 1.13856 3.31412 0.570907 4.68456C0.00324963 6.05501 -0.145275 7.56301 0.144114 9.01786C0.433503 10.4727 1.14781 11.8091 2.1967 12.858C3.2456 13.9069 4.58197 14.6212 6.03683 14.9106C7.49168 15.2 8.99968 15.0514 10.3701 14.4838C11.7406 13.9161 12.9119 12.9548 13.736 11.7215C14.5601 10.4881 15 9.03805 15 7.55469C15 6.56977 14.806 5.5945 14.4291 4.68456C14.0522 3.77462 13.4997 2.94783 12.8033 2.25139C12.1069 1.55495 11.2801 1.0025 10.3701 0.625591C9.46019 0.248681 8.48492 0.0546875 7.5 0.0546875ZM7.5 13.5547C6.31331 13.5547 5.15328 13.2028 4.16658 12.5435C3.17989 11.8842 2.41085 10.9471 1.95673 9.85079C1.5026 8.75443 1.38378 7.54803 1.61529 6.38414C1.8468 5.22026 2.41825 4.15116 3.25736 3.31205C4.09648 2.47293 5.16558 1.90149 6.32946 1.66998C7.49335 1.43846 8.69975 1.55728 9.7961 2.01141C10.8925 2.46554 11.8295 3.23457 12.4888 4.22127C13.1481 5.20796 13.5 6.368 13.5 7.55469C13.5 9.14598 12.8679 10.6721 11.7426 11.7973C10.6174 12.9225 9.0913 13.5547 7.5 13.5547ZM7.5 3.05469C7.30109 3.05469 7.11032 3.1337 6.96967 3.27436C6.82902 3.41501 6.75 3.60577 6.75 3.80469V7.11969L5.175 8.02719C5.03052 8.10906 4.9173 8.23657 4.85309 8.38972C4.78888 8.54287 4.77732 8.713 4.82021 8.87343C4.86311 9.03386 4.95804 9.17552 5.09011 9.27619C5.22219 9.37686 5.38394 9.43085 5.55 9.42969C5.68138 9.43059 5.8107 9.39697 5.925 9.33219L7.875 8.20719L7.9425 8.13969L8.0625 8.04219C8.09183 8.00506 8.11698 7.96482 8.1375 7.92219C8.16195 7.88192 8.18206 7.83918 8.1975 7.79469C8.2179 7.747 8.23056 7.69636 8.235 7.64469L8.25 7.55469V3.80469C8.25 3.60577 8.17098 3.41501 8.03033 3.27436C7.88968 3.1337 7.69891 3.05469 7.5 3.05469Z" fill="#787878"/>
</svg>
