<svg width="27" height="24" viewBox="0 0 27 24" fill="none" xmlns="http://www.w3.org/2000/svg">
  <path d="M0.480469 12.8328V18.86C0.480469 19.1797 0.60747 19.4863 0.833533 19.7124C1.0596 19.9384 1.3662 20.0654 1.68591 20.0654H2.89134C2.89134 21.0246 3.27235 21.9444 3.95054 22.6226C4.62873 23.3008 5.54855 23.6818 6.50766 23.6818C7.46676 23.6818 8.38659 23.3008 9.06478 22.6226C9.74297 21.9444 10.124 21.0246 10.124 20.0654H17.3566C17.3566 21.0246 17.7376 21.9444 18.4158 22.6226C19.094 23.3008 20.0138 23.6818 20.9729 23.6818C21.932 23.6818 22.8518 23.3008 23.53 22.6226C24.2082 21.9444 24.5892 21.0246 24.5892 20.0654H25.7947C26.1144 20.0654 26.421 19.9384 26.647 19.7124C26.8731 19.4863 27.0001 19.1797 27.0001 18.86V4.39476C27.0001 3.43565 26.6191 2.51583 25.9409 1.83764C25.2627 1.15945 24.3429 0.778442 23.3838 0.778442H12.5348C11.5757 0.778442 10.6559 1.15945 9.97773 1.83764C9.29954 2.51583 8.91853 3.43565 8.91853 4.39476V6.80563H6.50766C5.94624 6.80563 5.39254 6.93634 4.89039 7.18742C4.38825 7.43849 3.95146 7.80302 3.61461 8.25216L0.721556 12.1096C0.686299 12.162 0.657939 12.2187 0.637176 12.2783L0.564849 12.4109C0.511649 12.5454 0.483067 12.6883 0.480469 12.8328ZM19.7675 20.0654C19.7675 19.827 19.8382 19.594 19.9706 19.3957C20.1031 19.1975 20.2913 19.043 20.5116 18.9518C20.7319 18.8605 20.9742 18.8367 21.2081 18.8832C21.4419 18.9297 21.6567 19.0445 21.8253 19.2131C21.9939 19.3817 22.1087 19.5964 22.1552 19.8303C22.2017 20.0641 22.1778 20.3065 22.0866 20.5267C21.9954 20.747 21.8409 20.9353 21.6426 21.0677C21.4444 21.2002 21.2113 21.2709 20.9729 21.2709C20.6532 21.2709 20.3466 21.1439 20.1205 20.9178C19.8945 20.6918 19.7675 20.3851 19.7675 20.0654ZM11.3294 4.39476C11.3294 4.07505 11.4564 3.76845 11.6825 3.54238C11.9085 3.31632 12.2151 3.18932 12.5348 3.18932H23.3838C23.7035 3.18932 24.0101 3.31632 24.2362 3.54238C24.4622 3.76845 24.5892 4.07505 24.5892 4.39476V17.6546H23.649C23.31 17.2817 22.8969 16.9837 22.4361 16.7798C21.9752 16.5759 21.4768 16.4706 20.9729 16.4706C20.469 16.4706 19.9706 16.5759 19.5098 16.7798C19.0489 16.9837 18.6358 17.2817 18.2968 17.6546H11.3294V4.39476ZM8.91853 11.6274H4.09678L5.54331 9.69868C5.65559 9.54897 5.80119 9.42746 5.96857 9.34377C6.13595 9.26008 6.32052 9.21651 6.50766 9.21651H8.91853V11.6274ZM5.30222 20.0654C5.30222 19.827 5.37292 19.594 5.50537 19.3957C5.63783 19.1975 5.82609 19.043 6.04636 18.9518C6.26662 18.8605 6.509 18.8367 6.74283 18.8832C6.97666 18.9297 7.19145 19.0445 7.36003 19.2131C7.52861 19.3817 7.64342 19.5964 7.68993 19.8303C7.73645 20.0641 7.71257 20.3065 7.62134 20.5267C7.5301 20.747 7.3756 20.9353 7.17736 21.0677C6.97913 21.2002 6.74607 21.2709 6.50766 21.2709C6.18796 21.2709 5.88135 21.1439 5.65528 20.9178C5.42922 20.6918 5.30222 20.3851 5.30222 20.0654ZM2.89134 14.0383H8.91853V17.3894C8.20712 16.7536 7.27327 16.4247 6.32044 16.4744C5.36762 16.524 4.47303 16.9482 3.83159 17.6546H2.89134V14.0383Z" fill="white"/>
</svg>
