<svg width="24" height="25" viewBox="0 0 24 25" fill="none" xmlns="http://www.w3.org/2000/svg">
  <path d="M13.5606 17.0432H6.6007C6.29306 17.0432 5.99801 17.1654 5.78047 17.3829C5.56293 17.6005 5.44072 17.8955 5.44072 18.2032C5.44072 18.5108 5.56293 18.8059 5.78047 19.0234C5.99801 19.241 6.29306 19.3632 6.6007 19.3632H13.5606C13.8682 19.3632 14.1633 19.241 14.3808 19.0234C14.5984 18.8059 14.7206 18.5108 14.7206 18.2032C14.7206 17.8955 14.5984 17.6005 14.3808 17.3829C14.1633 17.1654 13.8682 17.0432 13.5606 17.0432ZM8.92067 10.0833H11.2406C11.5483 10.0833 11.8433 9.96109 12.0609 9.74355C12.2784 9.52601 12.4006 9.23096 12.4006 8.92332C12.4006 8.61567 12.2784 8.32062 12.0609 8.10309C11.8433 7.88555 11.5483 7.76333 11.2406 7.76333H8.92067C8.61302 7.76333 8.31798 7.88555 8.10044 8.10309C7.8829 8.32062 7.76069 8.61567 7.76069 8.92332C7.76069 9.23096 7.8829 9.52601 8.10044 9.74355C8.31798 9.96109 8.61302 10.0833 8.92067 10.0833V10.0833ZM22.8405 12.4033H19.3605V1.96342C19.3613 1.75902 19.3081 1.55803 19.2063 1.38082C19.1044 1.2036 18.9575 1.05644 18.7805 0.954236C18.6042 0.852427 18.4041 0.798828 18.2005 0.798828C17.9969 0.798828 17.7969 0.852427 17.6205 0.954236L14.1406 2.94941L10.6606 0.954236C10.4843 0.852427 10.2843 0.798828 10.0807 0.798828C9.87703 0.798828 9.677 0.852427 9.50066 0.954236L6.02071 2.94941L2.54076 0.954236C2.36442 0.852427 2.16439 0.798828 1.96077 0.798828C1.75715 0.798828 1.55712 0.852427 1.38078 0.954236C1.20376 1.05644 1.05689 1.2036 0.955043 1.38082C0.853193 1.55803 0.799979 1.75902 0.80079 1.96342V20.5231C0.80079 21.4461 1.16743 22.3312 1.82004 22.9838C2.47266 23.6365 3.3578 24.0031 4.28074 24.0031H20.5205C21.4434 24.0031 22.3286 23.6365 22.9812 22.9838C23.6338 22.3312 24.0004 21.4461 24.0004 20.5231V13.5632C24.0004 13.2556 23.8782 12.9606 23.6607 12.743C23.4432 12.5255 23.1481 12.4033 22.8405 12.4033ZM4.28074 21.6831C3.97309 21.6831 3.67805 21.5609 3.46051 21.3434C3.24297 21.1258 3.12076 20.8308 3.12076 20.5231V3.97019L5.44072 5.29257C5.61975 5.38608 5.81873 5.43492 6.02071 5.43492C6.22269 5.43492 6.42167 5.38608 6.6007 5.29257L10.0807 3.2974L13.5606 5.29257C13.7396 5.38608 13.9386 5.43492 14.1406 5.43492C14.3426 5.43492 14.5416 5.38608 14.7206 5.29257L17.0405 3.97019V20.5231C17.0437 20.9189 17.1143 21.3112 17.2493 21.6831H4.28074ZM21.6805 20.5231C21.6805 20.8308 21.5583 21.1258 21.3407 21.3434C21.1232 21.5609 20.8281 21.6831 20.5205 21.6831C20.2128 21.6831 19.9178 21.5609 19.7003 21.3434C19.4827 21.1258 19.3605 20.8308 19.3605 20.5231V14.7232H21.6805V20.5231ZM13.5606 12.4033H6.6007C6.29306 12.4033 5.99801 12.5255 5.78047 12.743C5.56293 12.9606 5.44072 13.2556 5.44072 13.5632C5.44072 13.8709 5.56293 14.1659 5.78047 14.3835C5.99801 14.601 6.29306 14.7232 6.6007 14.7232H13.5606C13.8682 14.7232 14.1633 14.601 14.3808 14.3835C14.5984 14.1659 14.7206 13.8709 14.7206 13.5632C14.7206 13.2556 14.5984 12.9606 14.3808 12.743C14.1633 12.5255 13.8682 12.4033 13.5606 12.4033Z" fill="white"/>
</svg>
