<svg width="18" height="24" viewBox="0 0 18 24" fill="none" xmlns="http://www.w3.org/2000/svg">
  <path d="M10.125 13.824H5.625C5.32663 13.824 5.04048 13.9454 4.8295 14.1614C4.61853 14.3775 4.5 14.6705 4.5 14.976C4.5 15.2815 4.61853 15.5745 4.8295 15.7906C5.04048 16.0066 5.32663 16.128 5.625 16.128H10.125C10.4234 16.128 10.7095 16.0066 10.9205 15.7906C11.1315 15.5745 11.25 15.2815 11.25 14.976C11.25 14.6705 11.1315 14.3775 10.9205 14.1614C10.7095 13.9454 10.4234 13.824 10.125 13.824ZM14.625 2.304H13.2975C13.0654 1.63175 12.6359 1.04947 12.0679 0.636985C11.5 0.2245 10.8213 0.00200392 10.125 0H7.875C7.17869 0.00200392 6.50002 0.2245 5.93205 0.636985C5.36408 1.04947 4.9346 1.63175 4.7025 2.304H3.375C2.47989 2.304 1.62145 2.66811 0.988515 3.31624C0.355579 3.96437 0 4.84341 0 5.76V19.584C0 20.5006 0.355579 21.3796 0.988515 22.0278C1.62145 22.6759 2.47989 23.04 3.375 23.04H14.625C15.5201 23.04 16.3786 22.6759 17.0115 22.0278C17.6444 21.3796 18 20.5006 18 19.584V5.76C18 4.84341 17.6444 3.96437 17.0115 3.31624C16.3786 2.66811 15.5201 2.304 14.625 2.304ZM6.75 3.456C6.75 3.15047 6.86853 2.85746 7.0795 2.64141C7.29048 2.42537 7.57663 2.304 7.875 2.304H10.125C10.4234 2.304 10.7095 2.42537 10.9205 2.64141C11.1315 2.85746 11.25 3.15047 11.25 3.456V4.608H6.75V3.456ZM15.75 19.584C15.75 19.8895 15.6315 20.1825 15.4205 20.3986C15.2095 20.6146 14.9234 20.736 14.625 20.736H3.375C3.07663 20.736 2.79048 20.6146 2.5795 20.3986C2.36853 20.1825 2.25 19.8895 2.25 19.584V5.76C2.25 5.45447 2.36853 5.16146 2.5795 4.94541C2.79048 4.72937 3.07663 4.608 3.375 4.608H4.5V5.76C4.5 6.06553 4.61853 6.35855 4.8295 6.57459C5.04048 6.79063 5.32663 6.912 5.625 6.912H12.375C12.6734 6.912 12.9595 6.79063 13.1705 6.57459C13.3815 6.35855 13.5 6.06553 13.5 5.76V4.608H14.625C14.9234 4.608 15.2095 4.72937 15.4205 4.94541C15.6315 5.16146 15.75 5.45447 15.75 5.76V19.584ZM12.375 9.216H5.625C5.32663 9.216 5.04048 9.33737 4.8295 9.55341C4.61853 9.76946 4.5 10.0625 4.5 10.368C4.5 10.6735 4.61853 10.9665 4.8295 11.1826C5.04048 11.3986 5.32663 11.52 5.625 11.52H12.375C12.6734 11.52 12.9595 11.3986 13.1705 11.1826C13.3815 10.9665 13.5 10.6735 13.5 10.368C13.5 10.0625 13.3815 9.76946 13.1705 9.55341C12.9595 9.33737 12.6734 9.216 12.375 9.216Z" fill="white"/>
</svg>
