<svg width="11" height="15" viewBox="0 0 11 15" fill="none" xmlns="http://www.w3.org/2000/svg">
  <path d="M5.5 0.525391C4.04131 0.525391 2.64236 1.10485 1.61091 2.1363C0.579463 3.16775 0 4.5667 0 6.02539C0 9.73789 4.84688 13.9316 5.05313 14.1104C5.17765 14.2169 5.33613 14.2754 5.5 14.2754C5.66387 14.2754 5.82235 14.2169 5.94687 14.1104C6.1875 13.9316 11 9.73789 11 6.02539C11 4.5667 10.4205 3.16775 9.38909 2.1363C8.35764 1.10485 6.95869 0.525391 5.5 0.525391ZM5.5 12.6598C4.03562 11.2848 1.375 8.32164 1.375 6.02539C1.375 4.93137 1.8096 3.88216 2.58318 3.10858C3.35677 2.33499 4.40598 1.90039 5.5 1.90039C6.59402 1.90039 7.64323 2.33499 8.41682 3.10858C9.1904 3.88216 9.625 4.93137 9.625 6.02539C9.625 8.32164 6.96438 11.2916 5.5 12.6598ZM5.5 3.27539C4.9561 3.27539 4.42442 3.43668 3.97218 3.73885C3.51995 4.04102 3.16747 4.47051 2.95933 4.97301C2.75119 5.47551 2.69673 6.02844 2.80284 6.56189C2.90895 7.09534 3.17086 7.58534 3.55546 7.96993C3.94005 8.35453 4.43005 8.61644 4.9635 8.72255C5.49695 8.82866 6.04988 8.7742 6.55238 8.56606C7.05488 8.35792 7.48437 8.00544 7.78654 7.55321C8.08872 7.10097 8.25 6.56929 8.25 6.02539C8.25 5.29605 7.96027 4.59657 7.44454 4.08085C6.92882 3.56512 6.22935 3.27539 5.5 3.27539ZM5.5 7.40039C5.22805 7.40039 4.96221 7.31975 4.73609 7.16866C4.50997 7.01757 4.33374 6.80283 4.22967 6.55158C4.1256 6.30033 4.09837 6.02387 4.15142 5.75714C4.20447 5.49042 4.33543 5.24542 4.52773 5.05312C4.72003 4.86082 4.96503 4.72987 5.23175 4.67681C5.49847 4.62376 5.77494 4.65099 6.02619 4.75506C6.27744 4.85913 6.49218 5.03536 6.64327 5.26148C6.79436 5.4876 6.875 5.75344 6.875 6.02539C6.875 6.39006 6.73013 6.7398 6.47227 6.99766C6.21441 7.25552 5.86467 7.40039 5.5 7.40039Z" fill="#787878"/>
</svg>
