<svg width="21" height="27" viewBox="0 0 21 27" fill="none" xmlns="http://www.w3.org/2000/svg">
  <path d="M10.5 0C7.71523 0 5.04451 1.10625 3.07538 3.07538C1.10625 5.04451 0 7.71523 0 10.5C0 17.5875 9.25313 25.5938 9.64688 25.935C9.88461 26.1383 10.1872 26.2501 10.5 26.2501C10.8128 26.2501 11.1154 26.1383 11.3531 25.935C11.8125 25.5938 21 17.5875 21 10.5C21 7.71523 19.8938 5.04451 17.9246 3.07538C15.9555 1.10625 13.2848 0 10.5 0ZM10.5 23.1656C7.70437 20.5406 2.625 14.8837 2.625 10.5C2.625 8.41142 3.45469 6.40838 4.93153 4.93153C6.40838 3.45469 8.41142 2.625 10.5 2.625C12.5886 2.625 14.5916 3.45469 16.0685 4.93153C17.5453 6.40838 18.375 8.41142 18.375 10.5C18.375 14.8837 13.2956 20.5537 10.5 23.1656ZM10.5 5.25C9.46165 5.25 8.44662 5.55791 7.58326 6.13478C6.7199 6.71166 6.04699 7.5316 5.64963 8.49091C5.25227 9.45022 5.1483 10.5058 5.35088 11.5242C5.55345 12.5426 6.05346 13.4781 6.78769 14.2123C7.52191 14.9465 8.45738 15.4466 9.47578 15.6491C10.4942 15.8517 11.5498 15.7477 12.5091 15.3504C13.4684 14.953 14.2883 14.2801 14.8652 13.4167C15.4421 12.5534 15.75 11.5384 15.75 10.5C15.75 9.10761 15.1969 7.77225 14.2123 6.78769C13.2277 5.80312 11.8924 5.25 10.5 5.25ZM10.5 13.125C9.98082 13.125 9.47331 12.971 9.04163 12.6826C8.60995 12.3942 8.2735 11.9842 8.07482 11.5045C7.87614 11.0249 7.82415 10.4971 7.92544 9.98789C8.02672 9.47869 8.27673 9.01096 8.64385 8.64385C9.01096 8.27673 9.47869 8.02672 9.98789 7.92544C10.4971 7.82415 11.0249 7.87614 11.5045 8.07482C11.9842 8.2735 12.3942 8.60995 12.6826 9.04163C12.971 9.47331 13.125 9.98082 13.125 10.5C13.125 11.1962 12.8484 11.8639 12.3562 12.3562C11.8639 12.8484 11.1962 13.125 10.5 13.125Z" fill="white"/>
</svg>
