<svg width="12" height="13" viewBox="0 0 12 13" fill="none" xmlns="http://www.w3.org/2000/svg">
  <path d="M10.5126 6.96317C10.3802 6.96317 10.2417 6.92101 10.1092 6.89091C9.84092 6.83179 9.57728 6.7533 9.32036 6.65606C9.04101 6.55444 8.73394 6.55971 8.45825 6.67088C8.18256 6.78205 7.95772 6.99125 7.827 7.25822L7.69452 7.5292C7.10802 7.20293 6.56907 6.79771 6.09277 6.32487C5.61994 5.84857 5.21471 5.30963 4.88845 4.72312L5.14136 4.55452C5.40834 4.4238 5.61754 4.19896 5.7287 3.92327C5.83987 3.64757 5.84515 3.34051 5.74352 3.06116C5.64791 2.80369 5.56946 2.54017 5.50868 2.27233C5.47857 2.13985 5.45448 2.00135 5.43642 1.86286C5.36329 1.4387 5.14113 1.0546 4.80994 0.77971C4.47875 0.504822 4.06029 0.357215 3.62993 0.363472H1.82345C1.56393 0.361036 1.30694 0.414544 1.06997 0.520354C0.832992 0.626164 0.621598 0.781792 0.450175 0.976643C0.278751 1.17149 0.151324 1.40099 0.076568 1.64952C0.00181172 1.89804 -0.0185186 2.15976 0.0169612 2.41684C0.337756 4.93953 1.48987 7.28344 3.29131 9.07834C5.09275 10.8732 7.44084 12.0168 9.96467 12.3284H10.1935C10.6375 12.3291 11.0663 12.1662 11.3978 11.8708C11.5883 11.7004 11.7405 11.4915 11.8443 11.258C11.9481 11.0244 12.0012 10.7715 12 10.5159V8.70943C11.9926 8.29116 11.8403 7.88842 11.569 7.56994C11.2978 7.25147 10.9244 7.03701 10.5126 6.96317ZM10.8137 10.5761C10.8136 10.6616 10.7953 10.7461 10.76 10.824C10.7247 10.9019 10.6732 10.9713 10.609 11.0278C10.5419 11.0862 10.4632 11.1298 10.3782 11.1557C10.2931 11.1817 10.2035 11.1894 10.1152 11.1783C7.86006 10.8891 5.76534 9.85745 4.16147 8.24594C2.5576 6.63444 1.53586 4.53485 1.25741 2.27835C1.24783 2.19014 1.25623 2.10091 1.2821 2.01604C1.30798 1.93117 1.35079 1.85243 1.40796 1.78457C1.46438 1.72034 1.53384 1.66886 1.61171 1.63356C1.68958 1.59826 1.77408 1.57995 1.85958 1.57984H3.66606C3.80609 1.57672 3.94283 1.62252 4.05274 1.70935C4.16264 1.79617 4.23884 1.9186 4.26822 2.05555C4.29231 2.22014 4.32242 2.38272 4.35855 2.5433C4.42811 2.86072 4.52069 3.17267 4.63554 3.47665L3.79252 3.86805C3.72043 3.90113 3.6556 3.94811 3.60173 4.00631C3.54785 4.06451 3.50601 4.13277 3.47859 4.20719C3.45117 4.2816 3.43873 4.3607 3.44197 4.43994C3.4452 4.51918 3.46406 4.597 3.49746 4.66893C4.36409 6.52525 5.85627 8.01743 7.71259 8.88406C7.85919 8.94429 8.02363 8.94429 8.17023 8.88406C8.24533 8.8572 8.31434 8.81569 8.37326 8.76194C8.43218 8.70818 8.47984 8.64326 8.51346 8.57094L8.8868 7.72791C9.1981 7.83924 9.51581 7.93174 9.83822 8.00491C9.9988 8.04103 10.1614 8.07114 10.326 8.09523C10.4629 8.12461 10.5853 8.20081 10.6722 8.31072C10.759 8.42062 10.8048 8.55736 10.8017 8.69739L10.8137 10.5761Z" fill="#787878"/>
</svg>
