<svg width="35" height="43" viewBox="0 0 35 43" fill="none" xmlns="http://www.w3.org/2000/svg">
  <path fill-rule="evenodd" clip-rule="evenodd" d="M15.2208 3.39558C13.9258 5.06275 12.7362 6.42248 12.5773 6.4166C12.418 6.41071 11.7364 5.97431 11.0622 5.4467C10.3879 4.91908 9.44991 4.48268 8.97819 4.47679C8.20051 4.46698 8.12009 5.12258 8.12009 11.4721C8.12009 17.7637 8.23287 18.7012 9.22337 20.6626C9.88877 21.9807 11.1534 23.3963 12.4106 24.2313C14.4446 25.5827 14.4946 25.6803 14.4946 28.3311V31.0462L12.6916 29.4628C10.1815 27.2592 8.15932 26.5306 4.58077 26.5389C0.566312 26.5487 0.0494885 26.8954 0.497174 29.2804C1.54749 34.8802 5.85665 38.7049 11.4966 39.0437C14.1965 39.206 14.2543 39.2403 14.4946 40.8384L14.7398 42.4678H17.6818H20.6239L20.77 40.7516L20.9157 39.0354L23.7126 38.9849C29.3217 38.8839 33.7951 34.9915 34.8665 29.2804C35.3142 26.8954 34.7973 26.5487 30.7829 26.5389C27.2043 26.5306 25.1822 27.2592 22.6721 29.4628L20.8691 31.0462V28.1443C20.8691 25.316 20.9122 25.2214 22.5676 24.4324C23.5017 23.9867 24.8806 22.6941 25.6323 21.5599C26.9552 19.5628 27.0033 19.2602 27.1553 11.982C27.3309 3.60201 27.222 3.36714 24.1716 5.53937L22.6647 6.61225L21.3991 4.94311C20.7029 4.02518 19.5579 2.61887 18.8542 1.81863L17.5754 0.363281L15.2208 3.39558ZM19.4162 5.9596C20.2802 7.05062 20.9054 8.00287 20.8058 8.07495C20.7058 8.14703 19.9933 8.68396 19.223 9.26747C17.7814 10.3595 17.3734 10.2992 15.3238 8.68935C14.4789 8.0264 14.5024 7.89793 15.8141 6.00275C16.5717 4.9083 17.3386 4.00459 17.5181 3.99429C17.6975 3.98399 18.5517 4.86858 19.4162 5.9596ZM14.0042 10.3502C15.8234 11.6986 17.4783 12.8019 17.6818 12.8019C17.8853 12.8019 19.5402 11.6986 21.3594 10.3502C23.1786 9.0017 24.8051 7.89842 24.9743 7.89842C25.1439 7.89842 25.2812 10.1599 25.2797 12.9245C25.2773 17.3013 25.1312 18.1913 24.148 19.8158C21.7316 23.8077 17.0743 24.8546 13.2604 22.2631C11.3402 20.9583 11.3284 20.9318 12.5337 20.6474C13.3241 20.4606 13.7591 20.0178 13.7591 19.3995C13.7591 18.6458 13.3663 18.4085 11.9203 18.2888C10.3502 18.1589 10.0815 17.9652 10.0815 16.9634C10.0815 15.8675 10.282 15.7812 13.1412 15.6449C15.5959 15.5277 16.2333 15.3291 16.3643 14.6407C16.5065 13.8939 16.1098 13.7826 13.3045 13.7826H10.0815V10.8405C10.0815 9.22236 10.2197 7.89842 10.3894 7.89842C10.5586 7.89842 12.1851 9.0017 14.0042 10.3502ZM18.9077 33.1512V40.2612H17.6818H16.456V33.1512V26.0412H17.6818H18.9077V33.1512ZM9.09097 29.5962C11.4373 30.7951 12.5714 32.1146 13.7772 35.0494L14.5573 36.947L11.3976 36.746C8.89189 36.5861 7.86952 36.2635 6.45831 35.1871C4.69748 33.8441 2.72629 30.7073 2.72629 29.2481C2.72629 28.0727 6.5147 28.2801 9.09097 29.5962ZM32.6374 29.2481C32.6374 30.7073 30.6662 33.8441 28.9054 35.1871C27.4941 36.2635 26.4718 36.5861 23.9661 36.746L20.8063 36.947L21.5865 35.0494C22.7922 32.1146 23.9264 30.7951 26.2727 29.5962C28.849 28.2801 32.6374 28.0727 32.6374 29.2481Z" fill="white"/>
</svg>
