<svg width="35" height="31" viewBox="0 0 42 31" fill="none" xmlns="http://www.w3.org/2000/svg">
  <path fill-rule="evenodd" clip-rule="evenodd" d="M4.87326 5.1034L0 10.2068L0.117165 20.6034L0.233892 31H21H41.7661L41.8828 20.5861L42 10.1722L38.3854 6.84446C36.3975 5.01399 33.8641 2.72547 32.7549 1.75835L30.7386 0H20.2428H9.74652L4.87326 5.1034ZM18.1942 2.79211C19.2565 3.63227 20.1256 4.48635 20.1256 4.69007C20.1256 4.8942 19.093 5.05658 17.8304 5.05068C15.7586 5.04098 15.3542 4.87522 13.6772 3.34842C12.6555 2.418 11.8192 1.56856 11.8192 1.46101C11.8192 1.35346 12.819 1.26531 14.0409 1.26531C15.9466 1.26531 16.5368 1.4821 18.1942 2.79211ZM25.1891 2.79211C26.2514 3.63227 27.1205 4.48635 27.1205 4.69007C27.1205 4.8942 26.0879 5.05658 24.8253 5.05068C22.7535 5.04098 22.3491 4.87522 20.6721 3.34842C19.6504 2.418 18.8141 1.56856 18.8141 1.46101C18.8141 1.35346 19.8139 1.26531 21.0358 1.26531C22.9415 1.26531 23.5317 1.4821 25.1891 2.79211ZM32.1744 2.83091C33.2419 3.69174 34.1154 4.54582 34.1154 4.72887C34.1154 4.9115 33.0828 5.05658 31.8202 5.05068C29.7484 5.04098 29.344 4.87522 27.667 3.34842C26.6453 2.418 25.809 1.56856 25.809 1.46101C25.809 1.35346 26.8045 1.26531 28.0211 1.26531C29.9329 1.26531 30.4964 1.47788 32.1744 2.83091ZM15.2607 6.39275L19.6885 10.4653V20.2057V29.9456H15.5352C11.6736 29.9456 11.382 29.8865 11.382 29.102C11.382 28.4635 11.674 28.2581 12.5843 28.2568C15.1798 28.2534 17.9397 25.5482 17.9397 23.0075C17.9397 22.0231 17.7823 21.932 16.0817 21.9337C15.0014 21.9345 13.6287 22.285 12.8029 22.7709L11.382 23.6068V22.4351C11.382 21.4086 11.6181 21.2027 13.2881 20.7717C15.8015 20.123 17.9397 17.8383 17.9397 15.8016C17.9397 14.3865 17.886 14.3401 16.2522 14.3401C15.1781 14.3401 13.9854 14.7189 12.9734 15.3819L11.382 16.4237V15.3874C11.382 14.6189 11.7488 14.2018 12.8029 13.7712C14.6805 13.0048 15.7731 11.7661 15.8828 10.2789C15.9575 9.26837 15.7888 9.04736 14.8611 8.94318C14.2093 8.8698 13.0569 9.27174 12.0736 9.91536L10.397 11.0128L9.42213 10.1292C8.88571 9.64332 7.73024 9.1334 6.85413 8.99633C5.31875 8.75592 5.26148 8.79219 5.26148 10.0103C5.26148 11.6661 6.64734 13.3157 8.54733 13.9205C9.74433 14.3018 10.0705 14.6303 10.0705 15.4561V16.5063L8.70297 15.5671C7.91866 15.028 6.42787 14.5434 5.20552 14.4304C3.10267 14.2355 3.07557 14.2482 3.07732 15.4464C3.0795 17.3052 4.6162 19.3512 6.69149 20.2601C7.70838 20.7055 8.88483 21.0741 9.3054 21.0792C9.8851 21.0863 10.0705 21.4427 10.0705 22.552V24.0155L8.47913 22.9737C6.34481 21.5764 3.07557 21.4815 3.07557 22.8173C3.07557 25.4424 5.9872 28.2585 8.70122 28.2585C9.77887 28.2585 10.0705 28.4382 10.0705 29.102C10.0705 29.8895 9.77887 29.9456 5.69866 29.9456H1.32684V20.2516V10.5573L5.53646 6.13167C8.26141 3.26702 9.93756 1.81403 10.2895 2.01268C10.5885 2.18181 12.8256 4.15231 15.2607 6.39275ZM23.5138 7.61756C24.5355 8.54799 25.3718 9.39743 25.3718 9.50498C25.3718 9.61253 24.372 9.70068 23.1501 9.70068C21.2444 9.70068 20.6542 9.48389 18.9968 8.17388C17.9345 7.33371 17.0654 6.47963 17.0654 6.27592C17.0654 6.07178 18.098 5.9094 19.3606 5.91531C21.4324 5.92501 21.8368 6.09076 23.5138 7.61756ZM30.5087 7.61756C31.5308 8.54799 32.3667 9.39743 32.3667 9.50498C32.3667 9.61253 31.3542 9.70068 30.1165 9.70068C28.1842 9.70068 27.5979 9.48811 25.9633 8.19623C24.9167 7.36872 24.0603 6.51464 24.0603 6.29827C24.0603 6.0819 25.0929 5.9094 26.3555 5.91531C28.4273 5.92501 28.8317 6.09076 30.5087 7.61756ZM37.6129 7.80272L39.5435 9.70068H37.1267C34.9867 9.70068 34.5006 9.52775 32.8826 8.19159C31.8775 7.36155 31.0552 6.50747 31.0552 6.29363C31.0552 6.0798 32.0961 5.90476 33.3687 5.90476C35.5332 5.90476 35.8064 6.02707 37.6129 7.80272ZM8.48131 10.9968C9.5852 11.8344 10.0473 13.0748 9.25513 13.0748C8.55957 13.0748 6.57302 11.3342 6.57302 10.7243C6.57302 9.89174 7.12999 9.97103 8.48131 10.9968ZM14.4541 10.9445C13.988 11.7846 12.3333 13.0748 11.7217 13.0748C10.9628 13.0748 11.455 11.8154 12.534 10.9968C14.0554 9.84197 15.0814 9.81414 14.4541 10.9445ZM26.6834 13.7075V16.449H23.8417H21V13.7075V10.966H23.8417H26.6834V13.7075ZM33.6783 13.7075V16.449H30.8366H27.9949V13.7075V10.966H30.8366H33.6783V13.7075ZM40.6732 13.7075V16.449H37.8315H34.9898V13.7075V10.966H37.8315H40.6732V13.7075ZM7.76346 16.4376C9.06233 17.2014 10.0779 19.1129 9.48771 19.6827C8.58886 20.5494 4.38711 17.7387 4.38711 16.2706C4.38711 15.3439 6.04403 15.4258 7.76346 16.4376ZM16.6282 16.3701C16.6282 17.4638 14.437 19.3389 12.7871 19.6574C10.8635 20.0285 10.8976 18.9408 12.8684 17.0395C14.5406 15.4262 16.6282 15.0546 16.6282 16.3701ZM26.6834 20.4558V23.1973H23.8417H21V20.4558V17.7143H23.8417H26.6834V20.4558ZM33.6783 20.4558V23.1973H30.8366H27.9949V20.4558V17.7143H30.8366H33.6783V20.4558ZM40.6732 20.4558V23.1973H37.8315H34.9898V20.4558V17.7143H37.8315H40.6732V20.4558ZM6.79598 23.3829C8.23212 23.9615 10.244 26.3808 9.82871 27.029C9.26868 27.9038 5.81014 26.3158 5.00572 24.8148C3.85244 22.6637 4.24109 22.3529 6.79598 23.3829ZM16.6282 23.6515C16.6282 24.6608 14.3881 26.9932 13.4188 26.9932C13.059 26.9932 12.454 27.1083 12.0736 27.2492C11.1411 27.5942 11.1687 26.4344 12.1261 25.024C12.83 23.9877 14.8851 22.8282 16.0817 22.792C16.3825 22.7831 16.6282 23.1699 16.6282 23.6515ZM26.6834 27.2041V29.9456H23.8417H21V27.2041V24.4626H23.8417H26.6834V27.2041ZM33.6783 27.2041V29.9456H30.8366H27.9949V27.2041V24.4626H30.8366H33.6783V27.2041ZM40.6732 27.2041V29.9456H37.8315H34.9898V27.2041V24.4626H37.8315H40.6732V27.2041Z" fill="white"/>
</svg>
