<svg width="34" height="31" viewBox="0 0 34 31" fill="none" xmlns="http://www.w3.org/2000/svg">
  <path fill-rule="evenodd" clip-rule="evenodd" d="M18.84 1.78738L15.621 3.34814H8.64936H1.67774L0.839071 4.41469C0.0360238 5.4355 0 5.9629 0 16.7053C0 27.4477 0.0360238 27.9751 0.839071 28.9959L1.67774 30.0624H15.4105C31.9143 30.0624 30.7619 30.4575 30.7619 24.8005C30.7619 21.4276 30.8218 21.1577 31.5714 21.1577C33.2273 21.1577 34 19.7653 34 16.7818C34 13.793 33.1686 12.2529 31.5556 12.2529C30.8271 12.2529 30.7619 11.9594 30.7619 8.68735C30.7619 4.00952 30.4713 3.61326 26.8487 3.34814C24.2011 3.15426 24.059 3.09071 23.5122 1.8485C23.1981 1.13531 22.7428 0.478377 22.5003 0.38933C22.2579 0.299877 20.6109 0.929282 18.84 1.78738ZM22.8893 4.19773C23.4649 5.33309 23.8571 6.34054 23.7611 6.43607C23.6652 6.532 21.1525 6.55952 18.1775 6.49719L12.7678 6.38385L17.0089 4.28921C19.3415 3.13685 21.3836 2.18081 21.5467 2.16421C21.7098 2.14762 22.3141 3.06278 22.8893 4.19773ZM10.5238 5.77671C9.53214 6.3195 8.27859 6.5575 6.34545 6.56923C3.93793 6.58421 3.60117 6.67731 3.71976 7.29457C3.84564 7.94826 4.83002 8.011 16.5216 8.10976L29.1866 8.21702L29.0635 10.1336L28.9405 12.0505L26.1723 12.2529C23.8919 12.4197 23.2677 12.6237 22.6306 13.4109C21.3645 14.9749 21.7418 19.9138 23.1981 20.8395C23.4624 21.0079 24.62 21.1479 25.7704 21.1516C29.123 21.1613 29.1429 21.184 29.1429 25.0029C29.1429 27.6877 29.015 28.4057 28.5025 28.6024C28.1504 28.7376 22.1761 28.8481 15.2263 28.8481C5.93826 28.8481 2.46176 28.7194 2.10476 28.3624C1.7506 28.0083 1.61905 24.8515 1.61905 16.6919C1.61905 10.5399 1.74048 5.38531 1.88902 5.23716C2.03717 5.08862 4.35969 4.97488 7.04974 4.98419L11.9405 5.00119L10.5238 5.77671ZM29.0676 5.8779C29.1801 6.46885 28.8955 6.58623 27.351 6.58623C26.333 6.58623 25.5 6.51014 25.5 6.41704C25.5 6.32395 25.385 5.94873 25.245 5.58323C25.0264 5.01333 25.2717 4.93642 26.9616 5.04409C28.4568 5.13921 28.9656 5.34078 29.0676 5.8779ZM32.3008 16.4357C32.3733 17.8285 32.2284 19.0323 31.9479 19.3702C31.3334 20.1105 24.6876 20.1834 23.9619 19.4577C23.4458 18.9416 23.2811 14.6066 23.7591 14.1286C23.915 13.9727 25.8732 13.897 28.1103 13.9598L32.1786 14.0743L32.3008 16.4357ZM25.9663 15.8492C25.1466 16.3685 25.5818 17.699 26.6192 17.8467C27.7068 18.0017 28.2406 16.9619 27.5194 16.0929C26.947 15.4032 26.7248 15.3684 25.9663 15.8492Z" fill="white"/>
</svg>
